<svg id="Camada_1" data-name="Camada 1" xmlns="http://www.w3.org/2000/svg" xmlns:xlink="http://www.w3.org/1999/xlink" viewBox="0 0 1000 1000"><defs><style>.cls-1,.cls-10{opacity:0.8;}.cls-2{fill:#7eb9c7;}.cls-3{fill:url(#Gradiente_sem_nome_25);}.cls-4{fill:url(#Gradiente_sem_nome_72);}.cls-5{fill:#1d8cc6;}.cls-6{fill:#649dcd;}.cls-7{fill:#90afd4;}.cls-8{fill:url(#Gradiente_sem_nome_25-2);}.cls-9{fill:url(#Gradiente_sem_nome_72-2);}.cls-10{fill:#eac13c;}</style><linearGradient id="Gradiente_sem_nome_25" x1="734.03" y1="934.34" x2="734.03" y2="588.5" gradientTransform="translate(1468.06 1522.84) rotate(180)" gradientUnits="userSpaceOnUse"><stop offset="0" stop-color="#8ca8ca"/><stop offset="1" stop-color="#6094bf"/></linearGradient><linearGradient id="Gradiente_sem_nome_72" x1="734.03" y1="635.23" x2="734.03" y2="273.69" gradientTransform="translate(1468.06 908.92) rotate(180)" gradientUnits="userSpaceOnUse"><stop offset="0" stop-color="#6094bf"/><stop offset="1" stop-color="#2182b6"/></linearGradient><linearGradient id="Gradiente_sem_nome_25-2" x1="7036.71" y1="934.34" x2="7036.71" y2="588.5" gradientTransform="matrix(-1, 0, 0, 1, 7302.69, 0)" xlink:href="#Gradiente_sem_nome_25"/><linearGradient id="Gradiente_sem_nome_72-2" x1="7036.71" y1="635.23" x2="7036.71" y2="273.69" gradientTransform="matrix(-1, 0, 0, 1, 7302.69, 0)" xlink:href="#Gradiente_sem_nome_72"/></defs><title>IguassuLogo</title><g class="cls-1"><rect class="cls-2" x="355.96" y="310.98" width="69.95" height="374.01" rx="34.98" ry="34.98"/><rect class="cls-2" x="574.09" y="559.12" width="69.95" height="374.01" rx="34.98" ry="34.98"/><rect class="cls-2" x="470.4" y="385.56" width="69.95" height="434.89" rx="34.98" ry="34.98"/><rect class="cls-2" x="355.96" y="711.6" width="69.95" height="221.54" rx="34.98" ry="34.98"/><rect class="cls-2" x="574.09" y="310.98" width="69.95" height="221.54" rx="34.98" ry="34.98"/></g><rect class="cls-3" x="686.75" y="588.5" width="94.55" height="345.84" rx="12" ry="12" transform="translate(1468.06 1522.84) rotate(-180)"/><rect class="cls-4" x="686.75" y="273.69" width="94.55" height="361.55" rx="12" ry="12" transform="translate(1468.06 908.92) rotate(-180)"/><circle class="cls-5" cx="821.67" cy="297.88" r="134.92"/><circle class="cls-6" cx="789.88" cy="610.16" r="103.13"/><circle class="cls-7" cx="781.45" cy="903.4" r="94.7" transform="translate(-409.92 817.17) rotate(-45)"/><rect class="cls-8" x="218.7" y="588.5" width="94.55" height="345.84" rx="12" ry="12"/><rect class="cls-9" x="218.7" y="273.69" width="94.55" height="361.55" rx="12" ry="12"/><circle class="cls-5" cx="178.33" cy="297.88" r="134.92"/><circle class="cls-6" cx="210.12" cy="610.16" r="103.13"/><circle class="cls-7" cx="218.55" cy="903.4" r="94.7" transform="translate(-574.79 419.14) rotate(-45)"/><circle class="cls-10" cx="505.38" cy="149.89" r="147.99"/></svg>