<svg id="Camada_1" data-name="Camada 1" xmlns="http://www.w3.org/2000/svg" xmlns:xlink="http://www.w3.org/1999/xlink" viewBox="0 0 1000 1000"><defs><style>.cls-1,.cls-10{opacity:0.8;}.cls-2{fill:#7eb9c7;}.cls-3{fill:url(#Gradiente_sem_nome_25);}.cls-4{fill:url(#Gradiente_sem_nome_72);}.cls-5{fill:#1d8cc6;}.cls-6{fill:#649dcd;}.cls-7{fill:#90afd4;}.cls-8{fill:url(#Gradiente_sem_nome_25-2);}.cls-9{fill:url(#Gradiente_sem_nome_72-2);}.cls-10,.cls-11{fill:#eac13c;}.cls-11{opacity:0.8;}</style><linearGradient id="Gradiente_sem_nome_25" x1="641.12" y1="638.07" x2="641.12" y2="429.52" gradientTransform="translate(1282.24 1067.6) rotate(180)" gradientUnits="userSpaceOnUse"><stop offset="0" stop-color="#8ca8ca"/><stop offset="1" stop-color="#6094bf"/></linearGradient><linearGradient id="Gradiente_sem_nome_72" x1="641.12" y1="457.71" x2="641.12" y2="239.69" gradientTransform="translate(1282.24 697.39) rotate(180)" gradientUnits="userSpaceOnUse"><stop offset="0" stop-color="#6094bf"/><stop offset="1" stop-color="#2182b6"/></linearGradient><linearGradient id="Gradiente_sem_nome_25-2" x1="4743.81" y1="638.07" x2="4743.81" y2="429.52" gradientTransform="matrix(-1, 0, 0, 1, 5102.69, 0)" xlink:href="#Gradiente_sem_nome_25"/><linearGradient id="Gradiente_sem_nome_72-2" x1="4743.81" y1="457.71" x2="4743.81" y2="239.69" gradientTransform="matrix(-1, 0, 0, 1, 5102.69, 0)" xlink:href="#Gradiente_sem_nome_72"/></defs><title>Iguassu</title><g class="cls-1"><rect class="cls-2" x="413.14" y="262.17" width="42.18" height="225.54" rx="18.88" ry="18.88"/><rect class="cls-2" x="544.68" y="411.81" width="42.18" height="225.54" rx="18.88" ry="18.88"/><rect class="cls-2" x="482.15" y="307.15" width="42.18" height="262.25" rx="18.88" ry="18.88"/><rect class="cls-2" x="413.14" y="503.75" width="42.18" height="133.59" rx="18.88" ry="18.88"/><rect class="cls-2" x="544.68" y="262.17" width="42.18" height="133.59" rx="18.88" ry="18.88"/></g><rect class="cls-3" x="612.61" y="429.52" width="57.02" height="208.55" rx="12" ry="12" transform="translate(1282.24 1067.6) rotate(-180)"/><rect class="cls-4" x="612.61" y="239.69" width="57.02" height="218.02" rx="12" ry="12" transform="translate(1282.24 697.39) rotate(-180)"/><circle class="cls-5" cx="693.97" cy="254.27" r="81.36"/><circle class="cls-6" cx="674.8" cy="442.58" r="62.19"/><circle class="cls-7" cx="669.72" cy="619.42" r="57.11" transform="translate(-241.84 654.99) rotate(-45)"/><rect class="cls-8" x="330.37" y="429.52" width="57.02" height="208.55" rx="12" ry="12"/><rect class="cls-9" x="330.37" y="239.69" width="57.02" height="218.02" rx="12" ry="12"/><circle class="cls-5" cx="306.03" cy="254.27" r="81.36"/><circle class="cls-6" cx="325.2" cy="442.58" r="62.19"/><circle class="cls-7" cx="330.28" cy="619.42" r="57.11" transform="translate(-341.26 414.97) rotate(-45)"/><circle class="cls-10" cx="503.24" cy="165.03" r="89.24"/><path class="cls-5" d="M100.27,712.89a61.53,61.53,0,0,1,.32-7.29,16.77,16.77,0,0,1,2-5.6,9.26,9.26,0,0,1,5.71-4.43,36.67,36.67,0,0,1,10.77-1.27,33,33,0,0,1,9.08,1.05,16.87,16.87,0,0,1,5.49,2.54,8.82,8.82,0,0,1,2.85,4.33,18.74,18.74,0,0,1,1.06,4.86c.07,1.34.11,3.34.11,6V830.54a61,61,0,0,1-.32,7.39,16.9,16.9,0,0,1-2,5.49,9.31,9.31,0,0,1-5.7,4.44,37.15,37.15,0,0,1-10.77,1.26,32.9,32.9,0,0,1-9.08-1,16.73,16.73,0,0,1-5.5-2.54,8.91,8.91,0,0,1-2.85-4.33,19.09,19.09,0,0,1-1.05-4.86c-.08-1.33-.11-3.34-.11-6Z"/><path class="cls-5" d="M243.48,737.39a33.08,33.08,0,0,1,10.13,1.26A9,9,0,0,1,259,743a17.09,17.09,0,0,1,1.9,5.39,58.61,58.61,0,0,1,.32,7.18V843q0,24.29-16.9,39.18t-38,14.89a64,64,0,0,1-30.63-7.82q-14.56-7.82-14.57-14.15a19.91,19.91,0,0,1,5.7-13.94l.64-.63a52.48,52.48,0,0,1,6.23-6.13,8.27,8.27,0,0,1,5.17-1.69,10.35,10.35,0,0,1,6.23,2.54,50.86,50.86,0,0,0,8.66,5.17,29.8,29.8,0,0,0,13.2,2.64,16,16,0,0,0,13.1-6.33,23.61,23.61,0,0,0,5.07-15.21v-6.34l-.42.42a5.62,5.62,0,0,1-.74,1.06c-.36.42-.81.92-1.38,1.48a16.85,16.85,0,0,1-2,1.69c-.78.56-1.62,1.13-2.54,1.69a20,20,0,0,1-3.27,1.58c-1.27.5-2.61.95-4,1.38a28.61,28.61,0,0,1-4.76.95,45.34,45.34,0,0,1-5.38.31q-18.58,0-33.9-16.16a53.57,53.57,0,0,1-15.32-38.12q0-21.12,15.42-37.39t33.8-16.26a31.76,31.76,0,0,1,13.09,2.64q5.91,2.64,8.14,4.86a27.93,27.93,0,0,1,3.48,4.12q.63-5.91,4.33-9T243.48,737.39Zm-37.39,72.45a16.39,16.39,0,0,0,12.67-5.6,18,18,0,0,0,5.07-12.36A19,19,0,0,0,219,779.53q-4.86-5.82-13.3-5.81a16.71,16.71,0,0,0-13.1,5.7,18.39,18.39,0,0,0-5.07,12.46,17.34,17.34,0,0,0,5.39,12.46A17.75,17.75,0,0,0,206.09,809.84Z"/><path class="cls-5" d="M327.54,848.7q-21.33,0-35.38-16.16t-14.05-39.39v-37a61.22,61.22,0,0,1,.32-7.4,18.43,18.43,0,0,1,1.9-5.49,8.85,8.85,0,0,1,5.6-4.43,36.67,36.67,0,0,1,10.77-1.27,33,33,0,0,1,9.08,1,16.94,16.94,0,0,1,5.5,2.54,9,9,0,0,1,2.85,4.33,19.09,19.09,0,0,1,1.05,4.86c.07,1.34.11,3.34.11,6v37q0,8.67,5,13.52t13.42,4.86q8.24,0,13.41-5.07t5.17-13.31V756a61.45,61.45,0,0,1,.32-7.28,16.89,16.89,0,0,1,1.9-5.49,9,9,0,0,1,5.6-4.33,36.67,36.67,0,0,1,10.77-1.27,35.86,35.86,0,0,1,10.56,1.27,8.87,8.87,0,0,1,5.6,4.43,18.23,18.23,0,0,1,1.9,5.6,61.53,61.53,0,0,1,.32,7.29V831a58.81,58.81,0,0,1-.32,7.07,15,15,0,0,1-2,5.39,9.5,9.5,0,0,1-5.7,4.22,35.86,35.86,0,0,1-10.56,1.27,34.88,34.88,0,0,1-10.35-1.27q-4-1.26-5.49-3.8a13.94,13.94,0,0,1-1.8-4.22,25.14,25.14,0,0,1-.32-4.44,14.81,14.81,0,0,1-1.16,1.48c-.49.57-1.55,1.62-3.17,3.17a36.08,36.08,0,0,1-5.17,4.12,32,32,0,0,1-7,3.27A25.93,25.93,0,0,1,327.54,848.7Z"/><path class="cls-5" d="M496.72,737.81a35.89,35.89,0,0,1,10.57,1.27,8.83,8.83,0,0,1,5.59,4.43,18.05,18.05,0,0,1,1.9,5.6,59.42,59.42,0,0,1,.32,7.29v73.92a59.31,59.31,0,0,1-.32,7.29,16.89,16.89,0,0,1-1.9,5.49,8.89,8.89,0,0,1-5.59,4.33,36.79,36.79,0,0,1-10.78,1.27q-9.5,0-13.41-2.85a11.37,11.37,0,0,1-4.54-8.34q-7.81,11.19-25.35,11.19-19,0-34.64-16.69t-15.63-39.07q0-21.75,15.74-38.34T453.21,738a32.91,32.91,0,0,1,13.1,2.54q5.91,2.54,8.24,4.75a30.11,30.11,0,0,1,3.8,4.33q.63-5.91,4.54-8.87T496.72,737.81Zm-37.8,73.93A16.57,16.57,0,0,0,471.7,806a18.45,18.45,0,0,0,5.17-12.67,19.42,19.42,0,0,0-5-12.67q-5-5.91-13.42-5.92a17,17,0,0,0-13.41,5.92,19.15,19.15,0,0,0-5.17,12.88,17.49,17.49,0,0,0,5.49,12.57A18.19,18.19,0,0,0,458.92,811.74Z"/><path class="cls-5" d="M573,851a74.09,74.09,0,0,1-40.13-11.82,8.23,8.23,0,0,1-4-7.4q0-6.12,8-17.32c1.54-2.39,3.94-3.59,7.18-3.59q5.49,0,12.88,4.44,10.35,5.91,17.53,5.91,12.88,0,12.89-5.07,0-2.1-4-3.59a49.43,49.43,0,0,0-10.13-2.32A61.71,61.71,0,0,1,560,806.77a73.75,73.75,0,0,1-13.2-6.44q-6.12-3.8-10.14-11.93t-4-19.33q0-33.37,45.84-33.37,15,0,30.83,7.18,7.4,3.38,7.4,9.29,0,4.23-4.44,11.41-4.86,7.6-9.71,7.6-2.53,0-7.19-2.11a40.63,40.63,0,0,0-17.11-4.22q-12.45,0-12.46,4.64c0,2.26,1.38,4,4.12,5.39a32.65,32.65,0,0,0,10.35,2.75,81.46,81.46,0,0,1,13.41,2.85,84.78,84.78,0,0,1,13.42,5.17A24.43,24.43,0,0,1,617.44,796q4.11,7.29,4.12,17.85,0,11.4-4.12,19.11a25.94,25.94,0,0,1-11.62,11.41,59.77,59.77,0,0,1-15.21,5.18A94.87,94.87,0,0,1,573,851Z"/><path class="cls-5" d="M676.26,851a74.09,74.09,0,0,1-40.13-11.82,8.21,8.21,0,0,1-4-7.4q0-6.12,8-17.32a8,8,0,0,1,7.18-3.59q5.49,0,12.89,4.44,10.35,5.91,17.53,5.91,12.88,0,12.89-5.07,0-2.1-4-3.59a49.54,49.54,0,0,0-10.14-2.32,61.79,61.79,0,0,1-13.2-3.49,73.42,73.42,0,0,1-13.2-6.44q-6.14-3.8-10.14-11.93t-4-19.33q0-33.37,45.83-33.37,15,0,30.84,7.18,7.39,3.38,7.39,9.29,0,4.23-4.43,11.41-4.86,7.6-9.72,7.6-2.54,0-7.18-2.11a40.66,40.66,0,0,0-17.11-4.22q-12.46,0-12.46,4.64c0,2.26,1.37,4,4.12,5.39a32.5,32.5,0,0,0,10.35,2.75A81.68,81.68,0,0,1,697,780.48a84.29,84.29,0,0,1,13.41,5.17A24.32,24.32,0,0,1,720.72,796q4.13,7.29,4.12,17.85,0,11.4-4.12,19.11a25.92,25.92,0,0,1-11.61,11.41,59.77,59.77,0,0,1-15.21,5.18A94.87,94.87,0,0,1,676.26,851Z"/><path class="cls-5" d="M788,848.7q-21.35,0-35.38-16.16t-14-39.39v-37a61.22,61.22,0,0,1,.32-7.4,18.15,18.15,0,0,1,1.9-5.49,8.85,8.85,0,0,1,5.6-4.43,36.67,36.67,0,0,1,10.77-1.27,33,33,0,0,1,9.08,1,16.87,16.87,0,0,1,5.49,2.54,8.82,8.82,0,0,1,2.85,4.33,18.74,18.74,0,0,1,1.06,4.86c.07,1.34.11,3.34.11,6v37q0,8.67,5,13.52t13.41,4.86c5.5,0,10-1.69,13.42-5.07s5.17-7.82,5.17-13.31V756a61.45,61.45,0,0,1,.32-7.28,16.89,16.89,0,0,1,1.9-5.49,8.92,8.92,0,0,1,5.6-4.33,36.67,36.67,0,0,1,10.77-1.27,35.86,35.86,0,0,1,10.56,1.27,8.87,8.87,0,0,1,5.6,4.43,18.23,18.23,0,0,1,1.9,5.6,62,62,0,0,1,.31,7.29V831a59.25,59.25,0,0,1-.31,7.07,15,15,0,0,1-2,5.39,9.5,9.5,0,0,1-5.7,4.22,35.86,35.86,0,0,1-10.56,1.27,34.88,34.88,0,0,1-10.35-1.27q-4-1.26-5.49-3.8a13.94,13.94,0,0,1-1.8-4.22,25.14,25.14,0,0,1-.32-4.44,14.81,14.81,0,0,1-1.16,1.48c-.49.57-1.55,1.62-3.17,3.17a36.08,36.08,0,0,1-5.17,4.12,32,32,0,0,1-7,3.27A25.93,25.93,0,0,1,788,848.7Z"/><path class="cls-11" d="M899.31,814.27q3.59,3.6,3.59,14.79v.84a64,64,0,0,1-.32,7.5,17.71,17.71,0,0,1-2.11,5.81,9.91,9.91,0,0,1-6,4.75A38,38,0,0,1,883,849.33q-11.4,0-15.84-4.43-3.8-3.58-3.8-14.79v-.84a64.32,64.32,0,0,1,.32-7.39,17.93,17.93,0,0,1,2-5.81,10.07,10.07,0,0,1,6-4.76,36.83,36.83,0,0,1,11.52-1.47Q894.45,809.84,899.31,814.27Z"/></svg>